<?xml version="1.0" encoding="UTF-8"?>
<svg id="Layer_2" data-name="Layer 2" xmlns="http://www.w3.org/2000/svg" viewBox="0 0 1323.94 436.44">
  <defs>
    <style>
      .cls-1 {
        fill: #050505;
      }

      .cls-1, .cls-2 {
        stroke-width: 0px;
      }
    </style>
  </defs>
  <g id="Layer_1-2" data-name="Layer 1">
    <path class="cls-2" d="m0,6.94h424.1v421.24H0V6.94Zm42.76,215.72h250.05v41.54h-160.36v87.05h249.82v-147.29h-250.85V75.54H42.76v147.12Z"/>
    <path class="cls-1" d="m293.63,282.47v52.67h-72.26v-52.67h72.26Z"/>
  </g>
  <g id="Layer_2-2" data-name="Layer 2">
    <g>
      <path class="cls-2" d="m570.03,275.82V6.85h41.13v223.09h102.65v45.88h-143.78Z"/>
      <path class="cls-2" d="m927.61,275.82h-44.72l-17.89-61.42h-81.78l-16.9,61.42h-43.85L802.04,4.63h43.69l81.89,271.19Zm-75.89-107.29l-28.21-100.63-27.68,100.63h55.89Z"/>
      <path class="cls-2" d="m938.83,187.4l40.28-5.18c4.53,34.65,19.37,51.99,44.53,51.99,12.46,0,22.26-3.55,29.4-10.64,7.14-7.09,10.71-15.87,10.71-26.35,0-6.16-1.25-11.4-3.74-15.71s-6.29-7.86-11.39-10.63c-5.1-2.78-17.45-7.42-37.05-13.95-17.57-5.78-30.42-12.06-38.58-18.84-8.16-6.77-14.65-15.68-19.46-26.7-4.82-11.03-7.22-22.89-7.22-35.58,0-14.78,3.09-28.09,9.26-39.92,6.17-11.83,14.7-20.76,25.58-26.8,10.88-6.03,24.3-9.06,40.28-9.06,24.02,0,42.77,7.1,56.25,21.28,13.48,14.18,20.62,34.47,21.41,60.86l-41.3,2.41c-1.81-14.55-5.72-24.72-11.73-30.53-6.01-5.79-14.56-8.69-25.66-8.69s-19.66,2.52-25.66,7.56c-6.01,5.04-9.01,11.31-9.01,18.81s2.72,13.58,8.18,18.62c5.45,5.04,17.97,10.59,37.57,16.63,20.73,6.54,35.71,13.42,44.94,20.63,9.23,7.22,16.27,16.53,21.15,27.93,4.87,11.4,7.3,25.24,7.3,41.52,0,23.55-6.66,43.34-19.97,59.37-13.31,16.03-34.13,24.04-62.46,24.04-50.08,0-77.95-31.01-83.62-93.04Z"/>
      <path class="cls-2" d="m1323.94,275.82h-44.72l-17.89-61.42h-81.78l-16.9,61.42h-43.85L1198.37,4.63h43.69l81.89,271.19Zm-75.89-107.29l-28.21-100.63-27.68,100.63h55.89Z"/>
    </g>
  </g>
  <g id="Layer_3" data-name="Layer 3">
    <g>
      <path class="cls-2" d="m572.26,436.44v-120.53h32.49c12.11,0,20.02.58,23.75,1.73,5.94,1.87,10.84,5.84,14.7,11.92s5.79,13.92,5.79,23.51c0,8.71-1.66,16.02-5,21.91s-7.5,10.03-12.5,12.41c-5,2.38-13.61,3.58-25.83,3.58h-13.25v45.47h-20.16Zm20.16-100.14v34.28h11.19c7.51,0,12.62-.52,15.33-1.56s4.91-2.93,6.64-5.65,2.59-6.06,2.59-10.01-.89-7.39-2.67-10.14c-1.78-2.75-3.98-4.59-6.6-5.52-2.62-.93-8.16-1.4-16.62-1.4h-9.85Z"/>
      <path class="cls-2" d="m755.98,436.44h-21.92l-8.77-27.3h-40.09l-8.28,27.3h-21.5l39-120.53h21.42l40.15,120.53Zm-37.21-47.69l-13.82-44.73-13.57,44.73h27.39Z"/>
      <path class="cls-2" d="m766.56,436.44v-120.53h32.49c12.11,0,20.02.58,23.75,1.73,5.94,1.87,10.84,5.84,14.7,11.92s5.79,13.92,5.79,23.51c0,8.71-1.66,16.02-5,21.91-3.33,5.89-7.5,10.03-12.5,12.41-5,2.38-13.61,3.58-25.83,3.58h-13.25v45.47h-20.16Zm20.16-100.14v34.28h11.19c7.51,0,12.62-.52,15.33-1.56s4.91-2.93,6.64-5.65,2.59-6.06,2.59-10.01-.89-7.39-2.67-10.14c-1.78-2.75-3.98-4.59-6.6-5.52-2.62-.93-8.16-1.4-16.62-1.4h-9.85Z"/>
      <path class="cls-2" d="m859.96,436.44v-120.53h74.32v20.39h-54.16v26.72h50.32v20.31h-50.32v32.72h55.99v20.39h-76.15Z"/>
      <path class="cls-2" d="m953.78,436.44v-119.54h20.16v99.15h50.32v20.39h-70.49Z"/>
      <path class="cls-2" d="m1038.76,436.44v-120.53h74.32v20.39h-54.16v26.72h50.32v20.31h-50.32v32.72h55.99v20.39h-76.15Z"/>
      <path class="cls-2" d="m1132.08,436.44v-120.53h42.58c10.89,0,18.66,1.09,23.33,3.25s8.5,5.92,11.5,11.26c3,5.34,4.5,11.74,4.5,19.2,0,9.43-2.29,17.02-6.87,22.77-4.58,5.76-11.1,9.37-19.54,10.85,4.33,3.07,7.91,6.43,10.75,10.07,2.84,3.64,6.7,10.18,11.58,19.61l12.16,23.51h-24.13l-14.63-26.23c-5.27-9.48-8.84-15.42-10.73-17.8-1.89-2.38-3.89-4.03-6-4.93-2.11-.9-5.5-1.36-10.17-1.36h-4.16v50.32h-20.16Zm20.16-69.56h15c9.17,0,15-.39,17.5-1.19s4.53-2.4,6.08-4.81,2.33-5.62,2.33-9.62-.78-6.92-2.33-9.25-3.67-3.93-6.33-4.81c-1.89-.6-7.36-.9-16.41-.9h-15.83v30.58Z"/>
      <path class="cls-2" d="m1323.38,436.44h-21.92l-8.76-27.3h-40.1l-8.28,27.3h-21.5l39-120.53h21.42l40.14,120.53Zm-37.19-47.69l-13.83-44.73-13.57,44.73h27.4Z"/>
    </g>
  </g>
</svg>